<mxfile host="app.diagrams.net" modified="2021-01-19T07:53:15.727Z" agent="5.0 (Windows NT 10.0; Win64; x64) AppleWebKit/537.36 (KHTML, like Gecko) Chrome/87.0.4280.141 Safari/537.36" etag="2Hz3_MQdyZgbhGhYseBT" version="14.0.5" type="github">
  <diagram id="pTpZC2qr3tTLavgAAqaT" name="第 1 页">
    <mxGraphModel dx="637" dy="475" grid="1" gridSize="10" guides="1" tooltips="1" connect="1" arrows="1" fold="1" page="1" pageScale="1" pageWidth="827" pageHeight="1169" math="0" shadow="0">
      <root>
        <mxCell id="0" />
        <mxCell id="1" parent="0" />
        <mxCell id="DdYIkWhmcDZ64kGIrauI-1" style="edgeStyle=orthogonalEdgeStyle;rounded=0;orthogonalLoop=1;jettySize=auto;html=1;exitX=0.5;exitY=1;exitDx=0;exitDy=0;" edge="1" parent="1" source="DdYIkWhmcDZ64kGIrauI-2" target="DdYIkWhmcDZ64kGIrauI-4">
          <mxGeometry relative="1" as="geometry" />
        </mxCell>
        <mxCell id="DdYIkWhmcDZ64kGIrauI-2" value="开始" style="rounded=1;whiteSpace=wrap;html=1;" vertex="1" parent="1">
          <mxGeometry x="130" y="50" width="100" height="30" as="geometry" />
        </mxCell>
        <mxCell id="DdYIkWhmcDZ64kGIrauI-3" style="edgeStyle=orthogonalEdgeStyle;rounded=0;orthogonalLoop=1;jettySize=auto;html=1;exitX=0.5;exitY=1;exitDx=0;exitDy=0;entryX=0.5;entryY=0;entryDx=0;entryDy=0;" edge="1" parent="1" source="DdYIkWhmcDZ64kGIrauI-4" target="DdYIkWhmcDZ64kGIrauI-6">
          <mxGeometry relative="1" as="geometry" />
        </mxCell>
        <mxCell id="DdYIkWhmcDZ64kGIrauI-4" value="物理结构设计&lt;font color=&quot;#ff9933&quot;&gt;①&lt;/font&gt;" style="rounded=0;whiteSpace=wrap;html=1;" vertex="1" parent="1">
          <mxGeometry x="125" y="100" width="110" height="30" as="geometry" />
        </mxCell>
        <mxCell id="DdYIkWhmcDZ64kGIrauI-5" style="edgeStyle=orthogonalEdgeStyle;rounded=0;orthogonalLoop=1;jettySize=auto;html=1;exitX=0.5;exitY=1;exitDx=0;exitDy=0;entryX=0.5;entryY=0;entryDx=0;entryDy=0;" edge="1" parent="1" target="DdYIkWhmcDZ64kGIrauI-8">
          <mxGeometry relative="1" as="geometry">
            <mxPoint x="205" y="180" as="sourcePoint" />
          </mxGeometry>
        </mxCell>
        <mxCell id="DdYIkWhmcDZ64kGIrauI-6" value="逻辑结构设计&lt;font color=&quot;#ff9933&quot;&gt;②&lt;/font&gt;" style="rounded=0;whiteSpace=wrap;html=1;" vertex="1" parent="1">
          <mxGeometry x="125" y="150" width="110" height="30" as="geometry" />
        </mxCell>
        <mxCell id="DdYIkWhmcDZ64kGIrauI-7" style="edgeStyle=orthogonalEdgeStyle;rounded=0;orthogonalLoop=1;jettySize=auto;html=1;exitX=0.5;exitY=1;exitDx=0;exitDy=0;entryX=0.5;entryY=0;entryDx=0;entryDy=0;" edge="1" parent="1" source="DdYIkWhmcDZ64kGIrauI-8" target="DdYIkWhmcDZ64kGIrauI-10">
          <mxGeometry relative="1" as="geometry" />
        </mxCell>
        <mxCell id="DdYIkWhmcDZ64kGIrauI-8" value="系统用例&lt;font color=&quot;#ff9933&quot;&gt;③&lt;/font&gt;" style="rounded=0;whiteSpace=wrap;html=1;" vertex="1" parent="1">
          <mxGeometry x="125" y="200" width="111" height="30" as="geometry" />
        </mxCell>
        <mxCell id="DdYIkWhmcDZ64kGIrauI-17" style="edgeStyle=orthogonalEdgeStyle;rounded=0;orthogonalLoop=1;jettySize=auto;html=1;exitX=0.5;exitY=1;exitDx=0;exitDy=0;entryX=0.5;entryY=0;entryDx=0;entryDy=0;" edge="1" parent="1" source="DdYIkWhmcDZ64kGIrauI-10" target="DdYIkWhmcDZ64kGIrauI-14">
          <mxGeometry relative="1" as="geometry" />
        </mxCell>
        <mxCell id="DdYIkWhmcDZ64kGIrauI-10" value="数据库ER图&lt;font color=&quot;#ff9933&quot;&gt;④&lt;/font&gt;" style="rounded=0;whiteSpace=wrap;html=1;" vertex="1" parent="1">
          <mxGeometry x="125" y="250" width="111" height="30" as="geometry" />
        </mxCell>
        <mxCell id="DdYIkWhmcDZ64kGIrauI-13" style="edgeStyle=orthogonalEdgeStyle;rounded=0;orthogonalLoop=1;jettySize=auto;html=1;exitX=0.5;exitY=1;exitDx=0;exitDy=0;entryX=0.5;entryY=0;entryDx=0;entryDy=0;" edge="1" parent="1" source="DdYIkWhmcDZ64kGIrauI-14" target="DdYIkWhmcDZ64kGIrauI-15">
          <mxGeometry relative="1" as="geometry" />
        </mxCell>
        <mxCell id="DdYIkWhmcDZ64kGIrauI-18" style="rounded=0;orthogonalLoop=1;jettySize=auto;html=1;exitX=0.5;exitY=0;exitDx=0;exitDy=0;entryX=1;entryY=0.5;entryDx=0;entryDy=0;edgeStyle=orthogonalEdgeStyle;" edge="1" parent="1" source="DdYIkWhmcDZ64kGIrauI-19" target="DdYIkWhmcDZ64kGIrauI-6">
          <mxGeometry relative="1" as="geometry" />
        </mxCell>
        <mxCell id="DdYIkWhmcDZ64kGIrauI-24" style="edgeStyle=orthogonalEdgeStyle;rounded=0;orthogonalLoop=1;jettySize=auto;html=1;exitX=1;exitY=0.5;exitDx=0;exitDy=0;entryX=0.51;entryY=1.19;entryDx=0;entryDy=0;entryPerimeter=0;" edge="1" parent="1" source="DdYIkWhmcDZ64kGIrauI-14" target="DdYIkWhmcDZ64kGIrauI-19">
          <mxGeometry relative="1" as="geometry" />
        </mxCell>
        <mxCell id="DdYIkWhmcDZ64kGIrauI-14" value="评审&lt;span style=&quot;color: rgb(255 , 153 , 51)&quot;&gt;⑥&lt;/span&gt;" style="rhombus;whiteSpace=wrap;html=1;" vertex="1" parent="1">
          <mxGeometry x="130" y="300" width="100" height="50" as="geometry" />
        </mxCell>
        <mxCell id="DdYIkWhmcDZ64kGIrauI-15" value="结束" style="rounded=1;whiteSpace=wrap;html=1;" vertex="1" parent="1">
          <mxGeometry x="130" y="390" width="100" height="30" as="geometry" />
        </mxCell>
        <mxCell id="DdYIkWhmcDZ64kGIrauI-16" value="Y" style="whiteSpace=wrap;html=1;strokeColor=none;" vertex="1" parent="1">
          <mxGeometry x="171.5" y="360" width="17" height="14" as="geometry" />
        </mxCell>
        <mxCell id="DdYIkWhmcDZ64kGIrauI-19" value="N" style="whiteSpace=wrap;html=1;strokeColor=none;" vertex="1" parent="1">
          <mxGeometry x="260" y="236" width="17" height="14" as="geometry" />
        </mxCell>
      </root>
    </mxGraphModel>
  </diagram>
</mxfile>
